<?xml version="1.0" encoding="utf-8"?>
<!-- Generator: Adobe Illustrator 19.0.0, SVG Export Plug-In . SVG Version: 6.00 Build 0)  -->
<svg version="1.1" id="图层_1" xmlns="http://www.w3.org/2000/svg" xmlns:xlink="http://www.w3.org/1999/xlink" x="0px" y="0px"
	 viewBox="30 0 74 14" style="enable-background:new 30 0 74 14;" xml:space="preserve">
<style type="text/css">
	.st0{fill:#CCCCCC;}
</style>
<title>grey</title>
<desc>Created with Sketch.</desc>
<g>
	<path id="Fill-1" class="st0" d="M36.6,0.2c0,0,0.1-0.2,0.4-0.2c0.3,0,0.4,0.2,0.4,0.2l1.7,4.5L43.6,5c0,0,0.3,0,0.4,0.4
		c0.1,0.3-0.1,0.5-0.1,0.5l-3.4,2.9l1.1,4.6c0,0,0.1,0.3-0.2,0.5c-0.3,0.2-0.5,0.1-0.5,0.1l-3.8-2.5l-3.8,2.5c0,0-0.2,0.1-0.5,0
		c-0.3-0.2-0.2-0.4-0.2-0.4l1.1-4.7l-3.5-3.1C30.1,5.7,30,5.5,30,5.3C30,5.2,30.1,5,30.4,5c0,0,4.6-0.3,4.6-0.3L36.6,0.2z"/>
	<path id="Fill-1-Copy" class="st0" d="M51.6,0.2c0,0,0.1-0.2,0.4-0.2c0.3,0,0.4,0.2,0.4,0.2l1.7,4.5L58.6,5c0,0,0.3,0,0.4,0.4
		c0.1,0.3-0.1,0.5-0.1,0.5l-3.4,2.9l1.1,4.6c0,0,0.1,0.3-0.2,0.5c-0.3,0.2-0.5,0.1-0.5,0.1l-3.8-2.5l-3.8,2.5c0,0-0.2,0.1-0.5,0
		c-0.3-0.2-0.2-0.4-0.2-0.4l1.1-4.7l-3.5-3.1C45.1,5.7,45,5.5,45,5.3C45,5.2,45.1,5,45.4,5c0,0,4.6-0.3,4.6-0.3L51.6,0.2z"/>
	<path id="Fill-1-Copy-2" class="st0" d="M66.6,0.2c0,0,0.1-0.2,0.4-0.2c0.3,0,0.4,0.2,0.4,0.2l1.7,4.5L73.6,5c0,0,0.3,0,0.4,0.4
		c0.1,0.3-0.1,0.5-0.1,0.5l-3.4,2.9l1.1,4.6c0,0,0.1,0.3-0.2,0.5c-0.3,0.2-0.5,0.1-0.5,0.1l-3.8-2.5l-3.8,2.5c0,0-0.2,0.1-0.5,0
		c-0.3-0.2-0.2-0.4-0.2-0.4l1.1-4.7l-3.5-3.1C60.1,5.7,60,5.5,60,5.3C60,5.2,60.1,5,60.4,5c0,0,4.6-0.3,4.6-0.3L66.6,0.2z"/>
	<path id="Fill-1-Copy-3" class="st0" d="M81.6,0.2c0,0,0.1-0.2,0.4-0.2c0.3,0,0.4,0.2,0.4,0.2l1.7,4.5L88.6,5c0,0,0.3,0,0.4,0.4
		c0.1,0.3-0.1,0.5-0.1,0.5l-3.4,2.9l1.1,4.6c0,0,0.1,0.3-0.2,0.5c-0.3,0.2-0.5,0.1-0.5,0.1l-3.8-2.5l-3.8,2.5c0,0-0.2,0.1-0.5,0
		c-0.3-0.2-0.2-0.4-0.2-0.4l1.1-4.7l-3.5-3.1C75.1,5.7,75,5.5,75,5.3C75,5.2,75.1,5,75.4,5c0,0,4.6-0.3,4.6-0.3L81.6,0.2z"/>
	<path id="Fill-1-Copy-4" class="st0" d="M96.6,0.2c0,0,0.1-0.2,0.4-0.2c0.3,0,0.4,0.2,0.4,0.2l1.7,4.5l4.4,0.3c0,0,0.3,0,0.4,0.4
		c0.1,0.3-0.1,0.5-0.1,0.5l-3.4,2.9l1.1,4.6c0,0,0.1,0.3-0.2,0.5c-0.3,0.2-0.5,0.1-0.5,0.1l-3.8-2.5l-3.8,2.5c0,0-0.2,0.1-0.5,0
		c-0.3-0.2-0.2-0.4-0.2-0.4l1.1-4.7l-3.5-3.1C90.1,5.7,90,5.5,90,5.3C90,5.2,90.1,5,90.4,5c0,0,4.6-0.3,4.6-0.3L96.6,0.2z"/>
</g>
</svg>
